<?xml version="1.0" standalone="no"?>
<!DOCTYPE svg PUBLIC "-//W3C//DTD SVG 20010904//EN"
 "http://www.w3.org/TR/2001/REC-SVG-20010904/DTD/svg10.dtd">
<svg version="1.0" xmlns="http://www.w3.org/2000/svg"
 width="400.000000pt" height="400.000000pt" viewBox="0 0 400.000000 400.000000"
 preserveAspectRatio="xMidYMid meet">
<metadata>
Created by potrace 1.14, written by Peter Selinger 2001-2017
</metadata>
<g transform="translate(0.000000,400.000000) scale(0.100000,-0.100000)"
fill="#000000" stroke="none">
<path d="M1820 3984 c-108 -24 -221 -61 -313 -104 -48 -22 -87 -42 -87 -45 0
-6 39 9 89 35 72 36 262 93 351 105 30 4 64 11 75 16 34 13 -42 9 -115 -7z"/>
<path d="M1998 3994 c-4 -3 -59 -18 -125 -33 -148 -34 -179 -49 -97 -46 33 1
73 5 89 9 20 5 11 -3 -30 -26 -33 -18 -78 -52 -101 -75 -37 -40 -84 -58 -84
-33 0 19 -51 10 -135 -24 -47 -19 -85 -31 -85 -28 0 9 81 62 155 102 66 36 88
51 82 57 -10 9 -257 -109 -257 -123 0 -2 18 5 40 16 22 11 40 18 40 15 0 -5
-177 -139 -223 -167 -37 -24 -48 -22 -18 2 13 11 19 20 15 20 -5 -1 -34 -23
-64 -51 -45 -41 -50 -48 -26 -39 54 20 36 3 -33 -31 -38 -19 -67 -31 -65 -27
8 13 -2 9 -85 -32 -176 -88 -284 -123 -421 -139 l-75 -8 120 -2 c122 -1 226
10 303 30 23 7 45 10 48 7 2 -3 -25 -22 -61 -43 -35 -21 -67 -47 -71 -57 -3
-10 -9 -16 -14 -13 -9 6 -23 -12 -26 -34 -2 -9 5 -7 19 6 12 11 35 28 51 38
l30 18 -31 -37 c-19 -24 -29 -45 -26 -57 3 -10 0 -25 -6 -33 -27 -32 24 -28
71 5 l33 24 -32 -40 c-18 -22 -33 -45 -33 -52 0 -7 -5 -13 -11 -13 -5 0 -7 -4
-4 -10 4 -6 17 -4 35 5 18 9 31 11 35 5 3 -6 1 -10 -6 -10 -7 0 -9 -3 -5 -7 3
-4 19 7 34 24 15 16 58 59 96 94 l70 64 -41 -50 c-47 -57 -119 -195 -102 -195
6 0 -22 -37 -62 -82 -43 -47 -61 -73 -44 -61 17 11 39 30 49 42 34 38 35 22 4
-61 -34 -93 -57 -207 -58 -284 0 -43 -7 -62 -44 -120 -73 -113 -74 -114 -109
-114 -18 -1 -43 -8 -57 -16 -15 -9 -18 -13 -6 -9 17 5 17 4 5 -12 -13 -15 -12
-16 6 -9 11 5 36 14 55 21 26 10 47 31 84 86 27 41 51 68 53 62 3 -7 -7 -27
-20 -45 -14 -18 -46 -75 -71 -127 -25 -51 -50 -98 -55 -105 -5 -6 -11 -15 -13
-21 -1 -5 -7 -9 -11 -7 -5 1 -6 -1 -3 -6 3 -5 -20 -34 -50 -65 -33 -33 -57
-66 -58 -82 -3 -20 -1 -23 10 -14 8 6 11 16 7 22 -3 6 -1 7 6 3 6 -4 23 0 38
9 18 12 28 14 32 6 8 -12 89 11 101 28 3 4 29 16 57 25 29 10 63 26 75 37 l23
20 -30 -17 c-29 -17 -29 -16 7 21 36 38 66 44 37 8 -10 -13 -6 -12 17 4 17 12
37 23 44 25 8 2 30 21 48 43 19 22 38 41 42 43 5 2 -27 -68 -70 -155 -43 -87
-75 -159 -70 -161 4 -2 4 -20 -1 -40 -12 -53 -10 -141 5 -182 l13 -35 1 62 c0
33 5 69 11 80 10 17 10 17 11 -2 0 -17 2 -17 17 5 21 31 30 38 121 101 41 28
76 48 79 46 2 -3 -3 -26 -12 -53 -11 -32 -13 -50 -6 -57 6 -6 8 -35 4 -70 -5
-48 -4 -59 7 -52 10 6 12 2 7 -15 -4 -15 3 -40 19 -69 13 -25 24 -39 24 -31 0
8 20 -25 44 -75 54 -109 60 -108 10 1 -49 108 -64 226 -64 522 l0 232 23 -12
c12 -7 26 -19 30 -25 4 -7 17 -18 28 -24 18 -9 19 -8 10 8 -12 24 -5 36 36 57
43 21 60 20 66 -5 3 -12 10 -18 15 -15 5 3 15 -1 22 -9 10 -12 9 -15 -8 -15
-19 0 -20 -3 -11 -27 5 -16 23 -43 40 -60 26 -28 37 -33 77 -33 42 0 49 4 70
33 12 18 22 39 22 46 0 10 6 9 25 -3 13 -9 27 -16 30 -16 9 0 -27 53 -64 94
-23 25 -32 40 -23 43 6 3 12 11 12 19 0 9 5 12 10 9 6 -4 8 -15 5 -26 -5 -13
3 -29 25 -50 37 -37 48 -33 25 11 -9 17 -15 39 -13 48 2 9 23 -28 46 -83 55
-131 57 -134 67 -98 5 15 7 34 6 42 -1 7 2 10 9 6 6 -4 11 -1 9 6 -5 40 2 57
26 63 16 4 25 13 25 27 0 27 16 56 52 94 33 35 88 139 88 168 0 11 3 17 6 14
4 -4 14 7 23 22 9 16 27 49 41 73 13 23 23 47 22 51 -1 5 2 6 8 2 6 -4 5 -17
-4 -38 -7 -18 -53 -124 -100 -237 -48 -113 -93 -220 -101 -237 -8 -18 -13 -33
-11 -33 2 0 22 28 45 62 47 72 157 195 166 186 3 -3 -12 -41 -34 -84 -23 -44
-41 -83 -41 -89 0 -5 18 8 39 29 22 21 52 40 68 43 82 12 270 13 368 1 l110
-13 16 -62 17 -61 -46 14 c-86 27 -156 36 -243 32 -72 -3 -93 -9 -135 -33 -43
-25 -82 -55 -72 -55 2 0 29 9 61 20 31 11 70 20 87 20 27 0 30 -3 30 -30 0
-20 5 -30 15 -30 8 0 15 -4 15 -10 0 -5 -4 -10 -10 -10 -27 0 3 -75 34 -85 40
-12 136 -21 136 -13 0 4 -15 8 -32 8 -48 0 -105 18 -112 36 -8 20 20 30 39 14
9 -8 29 -10 51 -7 42 7 64 0 64 -20 0 -24 25 1 41 40 21 51 30 56 66 39 l32
-15 -27 -35 c-24 -31 -24 -35 -7 -28 48 20 54 19 61 -10 l7 -29 18 40 18 40
-5 -40 c-16 -115 -66 -227 -137 -304 l-32 -34 34 19 c18 10 62 45 97 77 35 32
64 56 64 53 0 -11 -70 -153 -91 -185 l-22 -33 22 13 c12 8 42 42 68 77 25 34
47 61 49 59 13 -12 -70 -196 -121 -271 -14 -21 -23 -41 -20 -44 9 -9 179 163
262 266 42 52 82 96 90 99 7 3 13 10 13 15 0 16 93 209 98 204 5 -6 -37 -153
-56 -191 -8 -16 -26 -43 -39 -60 -39 -49 -93 -125 -93 -131 0 -8 59 34 98 71
84 76 175 225 202 330 15 59 27 85 39 85 15 0 -18 -141 -48 -204 -16 -33 -32
-72 -36 -86 -8 -25 -8 -25 14 -6 27 25 66 96 115 214 43 101 56 105 56 14 0
-81 -28 -202 -57 -244 -14 -21 -46 -54 -72 -75 -25 -20 -84 -74 -131 -119 -84
-81 -216 -163 -268 -167 -13 -1 -21 -6 -18 -13 3 -7 -2 -15 -10 -18 -22 -8
-22 -8 -26 16 -3 20 -7 17 -43 -22 -105 -116 -167 -178 -204 -205 -44 -33 -65
-63 -31 -45 48 26 108 71 114 86 4 9 9 14 13 11 3 -4 13 -1 21 5 35 30 44 -78
17 -208 -7 -35 -11 -72 -8 -83 6 -24 -49 -66 -157 -121 -167 -83 -390 -132
-615 -134 -131 -1 -143 1 -190 24 l-50 25 -3 64 c-3 62 10 99 26 75 4 -6 37
-19 73 -28 56 -16 76 -16 140 -7 103 16 216 55 334 113 108 54 236 139 218
145 -6 2 -43 -12 -81 -31 -123 -62 -235 -104 -373 -141 -170 -44 -251 -47
-327 -9 -59 29 -68 40 -137 160 -34 60 -51 81 -54 68 -2 -10 -20 -39 -40 -64
-20 -24 -36 -48 -36 -53 0 -5 -8 -15 -18 -22 -10 -7 -19 -17 -20 -22 -1 -4
-11 -7 -23 -7 -14 1 -24 -8 -32 -28 -10 -27 -9 -28 6 -17 9 6 -8 -11 -38 -40
-64 -60 -98 -66 -128 -24 -11 16 -23 38 -26 51 -7 20 -28 33 -25 15 4 -22 -2
-43 -11 -43 -6 0 -19 15 -30 32 -11 18 -20 28 -20 21 0 -12 34 -97 50 -125 12
-21 3 -48 -16 -48 -18 0 -18 -9 3 -32 9 -10 14 -21 11 -24 -9 -8 -154 55 -172
75 -15 16 -22 17 -52 8 -20 -6 -30 -13 -23 -17 6 -4 -10 -11 -36 -15 -26 -3
-54 -9 -61 -12 -17 -6 -18 -39 -2 -49 8 -5 6 -9 -6 -14 -39 -13 252 -120 328
-120 26 0 82 -10 124 -21 230 -64 324 -94 440 -140 131 -53 321 -118 475 -164
48 -15 85 -31 82 -36 -4 -5 0 -9 7 -9 10 0 10 -2 -1 -9 -11 -7 -10 -10 5 -13
10 -2 -9 -5 -44 -6 -35 -1 -105 7 -155 18 -51 10 -136 20 -189 22 -54 2 -98 7
-98 11 0 5 -4 6 -9 2 -6 -3 -13 0 -18 8 -21 33 -109 49 -119 22 -4 -8 -12 -15
-19 -15 -17 0 -14 -30 5 -52 8 -10 15 -26 15 -36 0 -12 10 -18 34 -20 29 -3
33 -1 23 11 -9 11 -9 14 3 14 8 0 12 -4 9 -9 -3 -4 2 -8 11 -8 9 0 13 4 10 10
-3 5 -2 10 4 10 5 0 12 -6 14 -12 3 -8 6 -6 6 5 1 21 34 23 51 2 7 -8 10 -15
6 -15 -4 0 1 -11 10 -25 8 -13 13 -29 9 -35 -6 -9 -2 -12 28 -14 11 -1 23 -8
50 -32 7 -5 21 -13 31 -17 10 -4 17 -9 15 -12 -10 -10 -97 29 -139 61 -25 20
-57 38 -72 41 -15 3 -26 8 -24 12 2 3 -18 4 -45 3 -33 -3 -49 0 -49 8 0 18
-28 42 -67 55 -27 9 -39 21 -48 49 -22 64 -41 83 -84 88 -22 2 -39 1 -39 -2 3
-37 -33 -40 -93 -9 -23 11 -43 19 -45 17 -5 -6 101 -58 118 -58 9 0 21 7 28
15 23 28 54 18 83 -27 15 -23 27 -54 27 -69 0 -24 3 -26 36 -25 27 1 40 -5 51
-22 l15 -22 -70 0 c-63 0 -70 2 -65 18 3 14 -3 21 -29 28 -26 8 -36 19 -51 54
-15 39 -17 40 -13 13 5 -28 1 -35 -22 -48 l-27 -16 32 6 c31 6 57 -10 31 -20
-8 -3 -15 -17 -16 -31 -3 -34 -8 -41 -44 -60 -18 -9 -27 -11 -23 -4 14 22 -35
-10 -63 -42 l-27 -29 -75 27 c-41 15 -89 38 -107 51 -39 28 -47 29 -33 2 6
-11 49 -45 95 -74 46 -30 86 -59 90 -65 4 -6 29 -10 61 -8 54 3 72 14 32 20
-38 5 -31 25 24 66 114 85 136 92 293 92 l141 0 54 -41 c58 -43 157 -92 170
-84 7 5 23 -32 21 -48 -1 -4 196 -6 436 -5 484 3 478 2 531 69 13 16 43 39 65
51 23 11 44 23 47 27 8 10 49 31 61 31 6 0 18 7 26 16 10 9 25 13 39 10 32 -8
37 7 11 34 -13 15 -16 22 -6 18 11 -4 19 3 26 23 11 28 10 30 -10 23 -12 -3
-69 -29 -127 -56 -83 -39 -348 -144 -378 -150 -4 -1 -18 4 -32 10 -23 11 -23
12 10 6 26 -4 31 -2 20 5 -12 8 -12 13 -2 23 9 9 12 9 12 0 0 -8 8 -5 21 7 12
11 27 17 35 14 8 -3 14 -1 14 4 0 5 6 10 13 10 7 0 62 23 122 52 60 29 157 65
217 81 60 16 121 36 135 45 23 15 24 21 18 61 l-6 45 28 -7 c32 -7 30 -5 -41
51 -28 22 -56 56 -67 79 -10 23 -31 51 -47 63 l-30 22 -6 -42 c-4 -23 -20 -66
-36 -94 -35 -61 -37 -73 -11 -49 10 9 28 43 40 75 12 33 28 62 36 65 12 4 21
-6 13 -16 -4 -6 53 -88 78 -113 22 -22 25 -32 19 -63 -9 -53 -32 -71 -95 -77
-53 -5 -54 -4 -30 11 25 15 25 15 1 8 -15 -4 -21 -2 -17 4 3 6 2 13 -4 17 -5
3 -10 1 -10 -4 0 -6 -12 -12 -27 -12 l-28 -1 30 -8 30 -8 -30 -1 -30 -2 30
-14 c30 -14 30 -14 2 -9 -33 7 -77 -2 -77 -17 0 -6 10 -8 23 -4 12 3 -7 -8
-42 -25 -35 -16 -68 -27 -74 -23 -6 4 -7 1 -2 -7 5 -9 2 -10 -14 -5 -12 4 -21
2 -21 -4 0 -19 -41 -34 -54 -20 -8 9 -8 10 2 4 19 -10 54 24 46 47 -5 16 -3
17 19 7 19 -9 31 -8 54 5 17 8 33 13 37 11 3 -3 4 -2 1 2 -3 3 -17 8 -32 9
-18 2 -23 0 -15 -5 11 -7 10 -10 -3 -15 -27 -10 -42 -7 -25 5 13 9 12 10 -2 5
-10 -3 -20 -1 -23 4 -4 6 -1 10 5 10 7 0 4 7 -5 16 -14 15 -21 14 -76 -6 -44
-17 -71 -21 -103 -17 -35 5 -49 2 -70 -14 -15 -11 -36 -19 -48 -16 -23 3 -23
3 2 14 43 19 490 496 490 524 0 12 -7 11 -30 -1 -22 -12 -53 -3 -43 13 4 6 0
8 -10 4 -10 -4 -21 2 -29 16 -19 29 -41 129 -30 136 4 3 -10 22 -32 41 -23 21
-37 28 -33 18 3 -10 16 -54 28 -98 21 -76 21 -83 6 -115 -22 -45 -121 -126
-250 -203 -104 -61 -123 -70 -113 -53 4 5 -3 7 -15 4 -16 -5 -18 -8 -7 -15 9
-6 6 -7 -9 -3 -28 8 -84 -20 -77 -38 7 -19 -39 -37 -96 -37 -36 0 -50 4 -50
14 0 7 -19 32 -42 55 -53 51 -51 55 67 131 84 53 179 133 169 143 -2 2 17 12
43 22 84 32 216 109 262 153 24 23 48 42 52 42 4 0 11 5 15 11 5 9 -1 10 -20
5 -16 -4 -26 -2 -26 5 0 6 -7 9 -15 5 -11 -4 -15 1 -15 19 0 37 23 132 28 113
6 -28 15 -22 40 25 12 23 34 56 48 72 l25 30 -6 -45 c-4 -25 -9 -60 -12 -78
-5 -31 -1 -28 81 53 47 48 94 97 102 111 9 13 19 23 21 20 5 -5 -24 -61 -45
-88 -7 -9 -14 -22 -16 -30 -1 -7 -6 -19 -10 -27 -15 -24 13 -2 54 43 64 70
114 136 175 231 49 78 56 85 52 55 -14 -89 -19 -175 -12 -236 4 -36 8 -64 10
-62 2 2 8 39 14 82 5 43 22 112 38 154 25 66 36 81 93 130 71 60 96 92 105
134 4 15 10 30 15 33 4 3 24 -28 43 -68 19 -39 47 -85 61 -102 l25 -30 -24 60
c-14 33 -25 68 -25 78 0 10 -4 16 -9 12 -17 -10 -36 94 -46 250 -7 104 3 170
16 110 4 -16 7 -50 9 -75 2 -70 18 -20 20 65 3 102 14 185 22 160 15 -44 28
-142 28 -205 0 -52 3 -67 15 -67 8 0 16 5 19 12 10 27 28 163 23 181 -3 11 -5
5 -6 -16 -1 -19 -7 -53 -13 -75 -12 -36 -14 -18 -19 165 -4 113 -9 234 -13
270 -5 41 -4 59 2 50 8 -14 27 -119 51 -285 l9 -60 1 68 c1 64 -30 312 -48
387 -8 30 -9 31 -11 10 l-2 -25 -8 25 c-4 14 -8 32 -9 40 -1 13 1 13 10 0 9
-12 10 -12 5 3 -3 10 -6 24 -6 30 0 7 -5 6 -11 -3 -8 -12 -10 -9 -6 12 2 15 1
25 -3 23 -4 -3 -11 12 -15 32 -4 25 -2 38 6 44 29 18 -48 331 -124 499 -34 76
-103 166 -216 283 -149 154 -219 197 -375 233 -38 8 -91 26 -118 40 -28 14
-52 23 -55 21 -2 -3 5 -8 16 -12 32 -10 16 -22 -37 -30 -40 -5 -64 0 -157 34
l-110 41 -196 0 c-108 0 -198 -3 -201 -6z m440 -39 c10 -9 -2 -10 -81 -7 -51
2 -75 7 -71 14 7 11 141 5 152 -7z m57 -15 c3 -5 -1 -10 -9 -10 -8 0 -18 5
-21 10 -3 6 1 10 9 10 8 0 18 -4 21 -10z m454 -80 c30 -11 71 -31 93 -46 42
-29 51 -42 16 -22 -13 7 -54 24 -92 38 -38 14 -71 31 -74 38 -5 15 -7 16 57
-8z m56 -61 c55 -29 145 -97 145 -110 0 -5 -38 10 -85 35 -47 25 -85 42 -85
38 0 -3 -7 4 -16 16 -8 12 -21 22 -29 22 -8 0 -17 5 -20 10 -11 18 49 11 90
-11z m-1115 -24 c0 -3 -33 -21 -72 -41 -40 -19 -86 -46 -103 -58 -35 -27 -75
-42 -75 -28 0 10 90 72 106 72 5 1 36 14 69 30 60 29 75 34 75 25z m420 -15
c-8 -5 -22 -9 -30 -9 -10 0 -8 3 5 9 27 12 43 12 25 0z m-792 -85 c3 -3 -2
-13 -10 -22 -14 -13 -22 -14 -45 -5 -21 9 -43 9 -93 -2 -36 -8 -66 -13 -68
-11 -2 1 21 15 50 30 44 22 62 26 107 21 29 -2 56 -7 59 -11z m95 -55 c-10
-11 -19 -20 -21 -20 -1 0 2 9 8 20 6 11 15 20 20 20 6 0 2 -9 -7 -20z m-333
-10 c-8 -5 -19 -10 -25 -10 -5 0 -3 5 5 10 8 5 20 10 25 10 6 0 3 -5 -5 -10z
m2049 -65 c73 -84 107 -151 166 -324 45 -132 72 -275 51 -268 -16 5 -41 64
-56 127 -11 48 -41 119 -85 200 -8 14 -10 27 -5 30 10 6 -78 195 -124 269 -39
61 -17 48 53 -34z m-1626 21 c-42 -35 -113 -78 -124 -74 -10 3 128 98 143 98
5 0 -3 -11 -19 -24z m-42 -81 c-55 -52 -172 -135 -188 -135 -8 0 50 54 122
115 50 42 118 86 124 80 2 -2 -24 -29 -58 -60z m383 -22 c-16 -21 -42 -58 -59
-83 -16 -25 -38 -46 -47 -46 -10 -1 -18 0 -18 3 0 13 142 175 148 168 3 -2 -8
-21 -24 -42z m1306 -51 c0 -15 -2 -15 -10 -2 -13 20 -13 33 0 25 6 -3 10 -14
10 -23z m-1596 -84 c-14 -23 -49 -72 -61 -85 -6 -7 -15 -22 -18 -33 -3 -11
-10 -20 -15 -20 -4 0 -11 -8 -14 -17 -3 -10 -13 -29 -21 -43 -12 -20 -15 -21
-15 -7 0 23 25 72 63 122 50 66 103 120 81 83z m140 -56 c-13 -28 -34 -51 -34
-39 0 5 20 45 34 65 15 25 16 5 0 -26z m-1014 24 c0 -2 -8 -10 -17 -17 -16
-13 -17 -12 -4 4 13 16 21 21 21 13z m1020 -153 c0 -27 -19 -40 -31 -22 -6 10
-9 11 -9 2 0 -7 -7 -13 -15 -13 -19 0 -19 4 0 40 24 47 54 44 55 -7z m1398
-28 c19 -56 10 -78 -13 -32 -14 27 -21 34 -28 25 -6 -9 -7 -7 -3 5 3 10 6 25
6 34 0 28 25 7 38 -32z m-2035 10 c-3 -9 -8 -14 -10 -11 -3 3 -2 9 2 15 9 16
15 13 8 -4z m-33 -27 c-6 -7 -27 -31 -46 -53 -20 -21 -56 -82 -81 -135 -25
-52 -51 -106 -58 -120 -63 -122 -75 -143 -75 -135 0 19 80 208 111 264 27 48
54 85 129 174 8 9 18 17 23 17 4 0 3 -6 -3 -12z m290 -110 c-39 -119 -53 -217
-47 -343 2 -66 8 -127 11 -136 7 -15 0 -15 -61 3 -37 10 -83 17 -100 14 -39
-6 -42 6 -13 49 11 17 20 38 20 48 0 9 4 17 10 17 5 0 12 16 16 35 3 19 11 35
18 35 6 0 4 5 -4 10 -20 13 -33 12 -24 -2 4 -6 3 -8 -3 -5 -14 9 34 108 103
209 65 95 88 127 91 124 1 -1 -7 -27 -17 -58z m-520 -94 c-32 -83 -35 -94 -50
-184 -12 -69 -12 -79 0 -60 8 12 10 12 10 -5 0 -32 -32 -112 -56 -142 l-23
-28 0 90 c-1 107 17 189 60 282 31 67 77 138 85 131 2 -2 -10 -40 -26 -84z
m2358 20 l-3 -39 -5 47 c-3 26 -1 43 3 39 5 -5 7 -26 5 -47z m-1202 -105 c-19
-41 -35 -68 -35 -61 -1 15 61 144 66 138 2 -1 -12 -36 -31 -77z m-566 -36 c-7
-62 -9 -136 -5 -206 l7 -109 -28 4 -29 3 3 85 c2 47 7 112 12 145 10 67 42
186 49 180 2 -2 -2 -48 -9 -102z m896 45 c-6 -31 -14 -60 -18 -63 -4 -4 -4
-13 -1 -21 4 -11 -38 -220 -65 -319 l-8 -30 -105 -7 c-57 -3 -116 -11 -131
-17 -33 -13 -35 -8 -7 22 58 60 143 174 209 277 41 63 81 120 89 127 9 7 12
13 8 13 -5 0 2 18 14 40 12 22 23 39 25 37 1 -1 -3 -28 -10 -59z m897 15 c10
-48 10 -57 8 -98 -3 -40 -3 -39 -17 20 -15 70 -18 119 -5 111 5 -3 11 -18 14
-33z m-821 -115 c-7 -7 -12 -8 -12 -2 0 6 3 14 7 17 3 4 9 5 12 2 2 -3 -1 -11
-7 -17z m37 -296 c6 -36 9 -67 8 -69 -3 -2 -169 28 -175 32 -4 3 80 248 88
258 4 5 14 -25 23 -65 l15 -73 -3 92 c-1 51 0 95 4 98 3 4 11 -41 18 -100 6
-59 16 -137 22 -173z m-931 25 c19 -44 14 -53 -14 -26 -24 22 -25 28 -20 94 3
38 6 86 7 105 1 19 5 -5 9 -55 4 -49 12 -103 18 -118z m1734 11 c-9 -40 -10
-38 -10 37 0 70 1 76 10 43 6 -23 6 -51 0 -80z m-1930 -4 c19 -9 42 -28 52
-43 16 -24 17 -24 13 -3 -6 24 4 28 34 12 26 -14 26 -44 -1 -37 -27 7 -25 -7
3 -27 20 -15 18 -15 -13 0 -19 10 -69 19 -111 22 -63 4 -82 1 -116 -17 -23
-11 -44 -25 -48 -31 -3 -5 -17 -10 -31 -10 -22 0 -24 4 -24 51 0 71 25 114 71
121 31 5 126 -16 171 -38z m1238 -268 c0 -22 -3 -27 -11 -19 -6 6 -13 42 -15
80 l-4 68 14 -50 c9 -27 15 -63 16 -79z m-1126 -17 c17 -16 -3 -23 -41 -13
-51 13 -55 33 -6 27 21 -3 42 -9 47 -14z m1806 -448 c-28 -56 -35 -52 -8 4 12
24 23 43 26 41 2 -2 -6 -22 -18 -45z m-247 -188 c-8 -21 -22 -47 -30 -58 -14
-19 -15 -19 -8 4 7 24 44 91 50 91 2 0 -3 -17 -12 -37z m-1557 -515 c16 -12
32 -26 35 -32 6 -8 5 -87 -1 -93 -3 -4 -7 -20 -9 -34 0 -5 -6 -7 -12 -3 -8 5
-8 9 1 14 9 5 9 9 1 14 -6 4 -15 -2 -19 -14 -8 -21 -9 -21 -56 14 -31 25 -44
30 -37 17 6 -10 33 -36 61 -56 62 -46 72 -76 36 -110 -29 -27 -33 -50 -11 -63
13 -7 14 -14 5 -36 -5 -15 -10 -40 -10 -55 0 -43 -14 -50 -68 -32 -72 25 -75
28 -68 75 20 134 19 160 -8 226 -37 90 -42 134 -22 165 15 23 23 25 85 25 55
0 74 -4 97 -22z m-200 -160 c-8 -79 -34 -185 -47 -194 -19 -11 -14 89 8 171
31 116 49 127 39 23z m-129 -75 c-3 -10 -5 -4 -5 12 0 17 2 24 5 18 2 -7 2
-21 0 -30z m511 -107 c9 -5 10 -12 3 -20 -5 -6 -16 -45 -24 -86 -14 -69 -15
-72 -16 -30 -1 25 -4 68 -7 96 -6 46 -4 51 12 49 11 0 25 -5 32 -9z m49 8 c-3
-3 -12 -4 -19 -1 -8 3 -5 6 6 6 11 1 17 -2 13 -5z m-67 -470 c0 -8 -4 -12 -10
-9 -5 3 -10 10 -10 16 0 5 5 9 10 9 6 0 10 -7 10 -16z m1360 6 c8 -5 11 -10 5
-10 -5 0 -17 5 -25 10 -8 5 -10 10 -5 10 6 0 17 -5 25 -10z m-1338 -55 c0 -5
-5 -11 -11 -13 -6 -2 -11 4 -11 13 0 9 5 15 11 13 6 -2 11 -8 11 -13z m808
-75 c0 -5 -2 -10 -4 -10 -3 0 -8 5 -11 10 -3 6 -1 10 4 10 6 0 11 -4 11 -10z"/>
<path d="M1416 2815 c-9 -26 -7 -32 5 -12 6 10 9 21 6 23 -2 3 -7 -2 -11 -11z"/>
<path d="M1376 2775 c-3 -9 -6 -24 -5 -33 0 -9 5 -4 10 12 9 32 6 48 -5 21z"/>
<path d="M2410 2657 c0 -7 -18 -34 -40 -61 -38 -46 -55 -81 -26 -54 8 7 12 16
9 21 -2 4 0 7 5 7 8 0 72 83 72 94 0 3 -4 6 -10 6 -5 0 -10 -6 -10 -13z"/>
<path d="M1395 2413 c-48 -10 -104 -35 -109 -49 -5 -12 -2 -13 17 -2 12 6 54
22 92 34 60 20 60 30 0 17z"/>
<path d="M1209 3673 c-13 -16 -12 -17 4 -4 9 7 17 15 17 17 0 8 -8 3 -21 -13z"/>
<path d="M1154 3618 l-29 -33 33 29 c30 28 37 36 29 36 -2 0 -16 -15 -33 -32z"/>
<path d="M1098 3548 l-23 -33 24 16 c14 8 25 23 27 32 3 24 -2 21 -28 -15z"/>
<path d="M660 2608 c-11 -18 -20 -39 -20 -47 0 -19 3 -14 29 37 25 50 19 56
-9 10z"/>
<path d="M2363 2283 c15 -2 37 -2 50 0 12 2 0 4 -28 4 -27 0 -38 -2 -22 -4z"/>
<path d="M605 2260 c-3 -6 1 -7 9 -4 18 7 21 14 7 14 -6 0 -13 -4 -16 -10z"/>
<path d="M2220 2255 l-35 -13 30 -1 c17 0 44 6 60 14 29 13 29 13 5 13 -14 0
-41 -6 -60 -13z"/>
<path d="M1340 2201 c0 -5 7 -12 16 -15 14 -5 15 -4 4 9 -14 17 -20 19 -20 6z"/>
<path d="M3127 1804 c-18 -24 -13 -31 11 -15 8 5 12 15 10 24 -2 12 -7 10 -21
-9z"/>
<path d="M862 1705 c0 -16 2 -22 5 -12 2 9 2 23 0 30 -3 6 -5 -1 -5 -18z"/>
<path d="M1692 1655 c6 -14 15 -25 20 -25 5 0 1 11 -8 25 -9 14 -18 25 -20 25
-2 0 2 -11 8 -25z"/>
<path d="M966 1637 c3 -10 9 -15 12 -12 3 3 0 11 -7 18 -10 9 -11 8 -5 -6z"/>
<path d="M1780 1631 c0 -5 9 -7 20 -4 11 3 20 7 20 9 0 2 -9 4 -20 4 -11 0
-20 -4 -20 -9z"/>
<path d="M1268 1425 c6 -11 25 -33 42 -50 23 -21 29 -24 22 -10 -6 11 -25 34
-42 50 -23 21 -29 24 -22 10z"/>
<path d="M1610 1431 c2 -16 79 -53 119 -57 25 -2 69 -8 96 -13 28 -5 81 -15
118 -22 47 -8 71 -9 78 -2 7 7 -13 13 -65 18 -44 4 -75 11 -73 17 1 6 -5 13
-13 15 -13 4 -13 3 0 -6 25 -17 -22 -9 -119 21 -62 19 -141 36 -141 29z"/>
<path d="M792 1278 c-7 -7 -12 -32 -12 -57 0 -55 -19 -109 -39 -114 -9 -2 4
-2 28 1 24 3 52 13 62 23 11 11 34 19 52 20 17 0 41 4 52 9 31 14 -74 -1 -117
-16 -32 -11 -38 -11 -38 0 0 8 7 19 15 26 11 9 12 17 5 30 -14 25 -13 63 2 78
7 7 10 12 7 12 -3 0 -10 -5 -17 -12z"/>
<path d="M2851 1176 c-24 -25 -41 -50 -38 -58 4 -10 6 -9 6 3 1 8 14 25 31 37
25 19 58 62 47 62 -1 0 -22 -20 -46 -44z"/>
<path d="M1048 1143 c6 -2 18 -2 25 0 6 3 1 5 -13 5 -14 0 -19 -2 -12 -5z"/>
<path d="M1153 1113 c57 -26 58 -27 35 -39 -21 -12 -21 -13 15 -9 48 6 110 32
103 43 -3 5 -28 7 -55 4 -33 -3 -64 1 -91 12 -65 26 -70 17 -7 -11z"/>
<path d="M950 1092 c0 -12 46 -32 73 -32 17 0 14 4 -16 20 -40 21 -57 25 -57
12z"/>
<path d="M1073 1053 c9 -2 25 -2 35 0 9 3 1 5 -18 5 -19 0 -27 -2 -17 -5z"/>
<path d="M516 993 c-20 -25 -36 -51 -36 -56 0 -5 10 3 22 19 12 16 33 41 47
57 13 15 20 27 14 27 -6 0 -27 -21 -47 -47z"/>
<path d="M970 992 c0 -5 -8 -9 -17 -9 -10 0 -29 -5 -43 -11 -16 -7 -19 -11 -9
-11 9 -1 19 -10 22 -21 3 -11 14 -21 26 -21 12 -1 26 -2 32 -3 23 -2 28 39 8
63 -11 13 -19 19 -19 13z"/>
<path d="M2872 974 c10 -10 20 -16 22 -13 3 3 -5 11 -17 18 -21 13 -21 12 -5
-5z"/>
<path d="M2975 881 c28 -27 52 -44 54 -39 4 11 -78 87 -94 87 -5 1 13 -21 40
-48z"/>
<path d="M433 878 c-19 -25 -24 -38 -14 -38 11 0 35 39 28 46 -2 3 -9 -1 -14
-8z"/>
<path d="M227 622 c-21 -23 -21 -32 -3 -32 7 0 16 10 19 22 8 29 4 32 -16 10z"/>
<path d="M116 541 c-26 -15 -54 -34 -60 -43 -6 -9 -20 -17 -31 -19 -19 -4 -20
-14 -23 -242 l-2 -237 322 2 323 3 6 75 c4 41 10 93 14 115 5 32 3 44 -9 54
-9 7 -16 22 -16 33 0 15 -5 18 -20 13 -36 -11 -22 20 20 45 22 14 40 28 40 32
0 18 -22 17 -42 -1 -12 -12 -26 -17 -32 -13 -26 20 -104 40 -145 39 -28 -1
-46 3 -49 11 -2 6 -8 12 -14 12 -6 0 -42 12 -80 27 -55 22 -70 32 -74 52 -10
46 -13 51 -27 45 -8 -3 -20 2 -27 11 -15 19 -14 19 -74 -14z m479 -191 c3 -5
-1 -10 -9 -10 -9 0 -16 5 -16 10 0 6 4 10 9 10 6 0 13 -4 16 -10z"/>
<path d="M770 521 c-34 -7 -34 -8 40 -30 41 -12 84 -26 96 -31 11 -4 31 -6 45
-3 13 2 53 -5 89 -16 35 -11 66 -18 69 -16 6 7 -71 39 -86 36 -13 -2 -62 26
-76 44 -5 6 -7 3 -4 -7 3 -9 0 -19 -7 -21 -13 -5 -54 17 -66 35 -9 12 -61 17
-100 9z"/>
<path d="M900 500 c0 -5 5 -10 11 -10 5 0 7 5 4 10 -3 6 -8 10 -11 10 -2 0 -4
-4 -4 -10z"/>
<path d="M425 476 c17 -8 32 -12 34 -10 7 7 -3 12 -34 18 l-30 6 30 -14z"/>
<path d="M3280 441 c8 -6 24 -11 34 -11 34 0 103 -48 116 -80 12 -28 30 -41
30 -20 0 18 -63 81 -95 94 -45 19 -105 31 -85 17z"/>
<path d="M916 363 c-27 -8 -64 -25 -81 -39 -18 -13 -36 -24 -42 -24 -5 0 -18
-10 -29 -22 l-19 -21 40 21 c115 59 162 77 225 81 52 4 59 6 35 12 -47 10 -76
9 -129 -8z"/>
<path d="M1674 219 c-4 -8 -3 -9 4 -5 7 4 12 1 12 -8 0 -8 4 -17 9 -20 5 -4 7
3 4 14 -7 26 -19 34 -29 19z"/>
<path d="M902 204 c-24 -11 -1 -23 25 -13 19 7 41 6 73 -2 51 -13 175 -4 186
13 4 6 -4 8 -22 4 -40 -8 -129 -9 -194 -2 -30 3 -61 3 -68 0z"/>
<path d="M3591 149 c-13 -5 -21 -12 -18 -15 3 -3 18 1 34 10 31 17 21 20 -16
5z"/>
<path d="M1360 121 c-53 -11 -79 -29 -85 -59 -4 -15 -10 -35 -16 -45 -7 -13
-5 -17 10 -17 11 0 21 5 23 11 3 8 49 13 133 16 116 3 131 2 143 -14 10 -14
14 -15 21 -4 6 9 11 10 15 2 10 -16 26 -14 26 4 0 19 21 19 46 0 26 -19 55
-20 48 0 -8 20 -118 72 -202 96 -69 20 -102 22 -162 10z"/>
<path d="M1726 66 c3 -8 13 -17 22 -21 13 -5 13 -2 -3 15 -21 24 -26 25 -19 6z"/>
<path d="M850 56 c0 -14 57 -62 65 -55 5 7 -40 64 -53 67 -6 1 -12 -4 -12 -12z"/>
<path d="M3110 34 c-52 -13 -99 -26 -105 -28 -5 -3 37 -4 95 -3 83 2 104 5
102 16 -2 8 3 11 13 8 8 -4 15 -2 15 3 0 6 -8 10 -17 11 -15 0 -15 2 2 9 38
16 -9 9 -105 -16z"/>
</g>
</svg>
